<svg width="221" height="112" viewBox="0 0 221 112" fill="none" xmlns="http://www.w3.org/2000/svg">
<path d="M220.5 50C220.5 63.4893 208.393 75.8663 188.429 84.8998C168.511 93.9125 140.959 99.5 110.5 99.5C80.0406 99.5 52.4889 93.9125 32.5708 84.8998C12.6068 75.8663 0.5 63.4893 0.5 50C0.5 36.5107 12.6068 24.1337 32.5708 15.1002C52.4889 6.08749 80.0406 0.5 110.5 0.5C140.959 0.5 168.511 6.08749 188.429 15.1002C208.393 24.1337 220.5 36.5107 220.5 50Z" stroke="#FF4040"/>
<path d="M220.5 62C220.5 75.4893 208.393 87.8663 188.429 96.8998C168.511 105.913 140.959 111.5 110.5 111.5C80.0406 111.5 52.4889 105.913 32.5708 96.8998C12.6068 87.8663 0.5 75.4893 0.5 62C0.5 48.5107 12.6068 36.1337 32.5708 27.1002C52.4889 18.0875 80.0406 12.5 110.5 12.5C140.959 12.5 168.511 18.0875 188.429 27.1002C208.393 36.1337 220.5 48.5107 220.5 62Z" stroke="#FF4040"/>
</svg>
